<?xml version="1.0" encoding="UTF-8" standalone="no"?>
<!DOCTYPE svg PUBLIC "-//W3C//DTD SVG 1.1//EN" "http://www.w3.org/Graphics/SVG/1.1/DTD/svg11.dtd">
<svg width="100%" height="100%" viewBox="0 0 2515 593" version="1.1" xmlns="http://www.w3.org/2000/svg" xmlns:xlink="http://www.w3.org/1999/xlink" xml:space="preserve" xmlns:serif="http://www.serif.com/" style="fill-rule:evenodd;clip-rule:evenodd;stroke-linejoin:round;stroke-miterlimit:2;">
    <g transform="matrix(1,0,0,1,-40920,-218)">
        <g id="abnoba-logo" serif:id="abnoba logo" transform="matrix(1.0136,0,0,0.168624,21848.3,218.555)">
            <rect x="18816.6" y="0" width="2480.32" height="3507.87" style="fill:none;"/>
            <g transform="matrix(1.97317,0,0,11.8607,18010.6,-28547.2)">
                <path d="M848.636,2592.65L848.636,2453.16L879.886,2453.16L879.886,2521.41C890.636,2509.41 905.636,2503.66 922.636,2503.66C961.636,2503.66 990.386,2530.41 990.386,2571.91C990.386,2613.41 961.636,2640.41 922.636,2640.41L919.636,2640.41C904.162,2640.41 890.255,2636.35 878.936,2629.15C857.528,2614.44 848.636,2593.8 848.636,2592.65ZM919.386,2613.66C941.762,2613.54 958.636,2597.32 958.636,2571.91C958.636,2546.41 941.636,2530.16 919.136,2530.16C896.636,2530.16 879.386,2546.41 879.386,2571.91C879.386,2572.43 879.394,2572.95 879.408,2573.47C879.55,2578.55 880.388,2583.25 881.823,2587.5C887.394,2603.82 901.951,2613.57 919.386,2613.66Z"/>
            </g>
            <g transform="matrix(1.97317,0,0,11.8607,18916.3,-28547.2)">
                <path d="M848.636,2592.65L848.636,2453.16L879.886,2453.16L879.886,2521.41C890.636,2509.41 905.636,2503.66 922.636,2503.66C961.636,2503.66 990.386,2530.41 990.386,2571.91C990.386,2613.41 961.636,2640.41 922.636,2640.41L919.636,2640.41C904.162,2640.41 890.255,2636.35 878.936,2629.15C857.528,2614.44 848.636,2593.8 848.636,2592.65ZM919.386,2613.66C941.762,2613.54 958.636,2597.32 958.636,2571.91C958.636,2546.41 941.636,2530.16 919.136,2530.16C896.636,2530.16 879.386,2546.41 879.386,2571.91C879.386,2572.43 879.394,2572.95 879.408,2573.47C879.55,2578.55 880.388,2583.25 881.823,2587.5C887.394,2603.82 901.951,2613.57 919.386,2613.66Z"/>
            </g>
            <g transform="matrix(1.97317,0,0,11.8607,17983,-28547.2)">
                <path d="M1095.89,2503.66C1076.39,2503.66 1060.14,2510.16 1049.89,2522.41L1049.89,2505.16L1020.14,2505.16L1020.14,2638.66L1051.39,2638.66L1051.39,2571.16C1051.39,2544.41 1066.39,2530.91 1088.64,2530.91C1108.64,2530.91 1120.39,2542.41 1120.39,2566.16L1120.39,2638.66L1151.64,2638.66L1151.64,2562.16C1151.64,2521.91 1127.89,2503.66 1095.89,2503.66Z" style="fill-rule:nonzero;"/>
            </g>
            <g transform="matrix(1.97317,0,0,11.8607,17955.4,-28547.2)">
                <path d="M1251.39,2640.41C1292.89,2640.41 1322.64,2611.91 1322.64,2571.91C1322.64,2531.91 1292.89,2503.66 1251.39,2503.66C1210.39,2503.66 1180.39,2531.91 1180.39,2571.91C1180.39,2611.91 1210.39,2640.41 1251.39,2640.41ZM1251.39,2613.66C1228.89,2613.66 1211.89,2597.41 1211.89,2571.91C1211.89,2546.41 1228.89,2530.16 1251.39,2530.16C1274.14,2530.16 1291.14,2546.41 1291.14,2571.91C1291.14,2597.41 1274.14,2613.66 1251.39,2613.66Z" style="fill-rule:nonzero;"/>
            </g>
            <g transform="matrix(-1.97317,0,0,11.8607,23842.7,-28547.2)">
                <path d="M1426.64,2503.66C1409.64,2503.66 1394.64,2509.41 1383.89,2521.41L1383.89,2505.66L1352.64,2505.66L1352.64,2638.66L1382.39,2638.66L1382.39,2621.41C1392.89,2634.16 1408.39,2640.41 1426.64,2640.41C1465.64,2640.41 1494.39,2613.41 1494.39,2571.91C1494.39,2530.41 1465.64,2503.66 1426.64,2503.66ZM1423.14,2613.66C1400.64,2613.66 1383.39,2597.41 1383.39,2571.91C1383.39,2546.41 1400.64,2530.16 1423.14,2530.16C1445.64,2530.16 1462.64,2546.41 1462.64,2571.91C1462.64,2597.41 1445.64,2613.66 1423.14,2613.66Z" style="fill-rule:nonzero;"/>
            </g>
            <g transform="matrix(1.97317,0,0,11.8607,8341.36,-17382.3)">
                <path d="M5679.49,1526.79L5754.81,1697.33L5720.02,1697.33L5702.32,1655.82L5626.51,1655.82L5610.03,1697.33L5576.48,1697.33C5576.48,1697.33 5630.2,1567.04 5643.73,1534.22C5645.59,1529.73 5649.97,1526.79 5654.84,1526.79C5664.51,1526.79 5679.49,1526.79 5679.49,1526.79ZM5636.52,1630.8L5691.57,1630.8L5662.77,1563.29L5636.52,1630.8Z" style="fill-rule:nonzero;"/>
            </g>
            <g transform="matrix(1.24686,-1.00065,0.16647,7.49484,13079.9,-16682.5)">
                <path d="M4345.02,3113.5C4327.02,3108.13 4303.56,3102.82 4282.59,3094.75L4292.14,3035.2C4310.63,3038.52 4339.07,3041.11 4353.71,3038.71C4342.92,3032.19 4317.22,3011.45 4306.59,2997.03L4341.28,2950.72C4353.07,2960.02 4365.05,2972.34 4379.27,2977.82C4374.06,2962.35 4375.58,2940.25 4377.02,2924.61L4428.79,2898.04L4439.81,2950.04C4434.56,2963.05 4419.07,2977.98 4408.13,2985.57C4418.55,2985.95 4438.6,2985.16 4450.74,2982.31L4458.59,3035.31C4440.08,3041.61 4414.98,3047.47 4397.21,3049.38C4410.82,3055.01 4438.55,3059.55 4458.22,3062.5L4454.48,3117.44C4441.37,3120.08 4412.52,3119.08 4395.5,3119.77C4397.98,3142.64 4403.08,3164.86 4410.52,3186.09C4396.88,3195.81 4381.17,3201.14 4363.6,3202.53C4353.66,3174.17 4347.31,3144.29 4345.02,3113.5Z"/>
            </g>
        </g>
    </g>
</svg>
